<svg id="logo_transparent" xmlns="http://www.w3.org/2000/svg" viewBox="10 10 80 80" fill="none">
                    <defs>
                        <filter id="glow_trans" x="-50%" y="-50%" width="200%" height="200%">
                            <feGaussianBlur stdDeviation="3" result="blur"/>
                            <feComposite in="SourceGraphic" in2="blur" operator="over"/>
                        </filter>
                        <linearGradient id="g_t_1" x1="0%" y1="0%" x2="100%" y2="100%"><stop offset="0%" style="stop-color:#ccfbf1"/><stop offset="100%" style="stop-color:#2dd4bf"/></linearGradient>
                        <linearGradient id="g_b_1" x1="0%" y1="0%" x2="100%" y2="100%"><stop offset="0%" style="stop-color:#bfdbfe"/><stop offset="100%" style="stop-color:#3b82f6"/></linearGradient>
                        <linearGradient id="g_i_1" x1="0%" y1="0%" x2="100%" y2="100%"><stop offset="0%" style="stop-color:#c7d2fe"/><stop offset="100%" style="stop-color:#6366f1"/></linearGradient>
                        <linearGradient id="g_p_1" x1="0%" y1="0%" x2="100%" y2="100%"><stop offset="0%" style="stop-color:#e9d5ff"/><stop offset="100%" style="stop-color:#a855f7"/></linearGradient>
                        <linearGradient id="g_pi_1" x1="0%" y1="0%" x2="100%" y2="100%"><stop offset="0%" style="stop-color:#fbcfe8"/><stop offset="100%" style="stop-color:#ec4899"/></linearGradient>
                    </defs>
                    <!-- No Background Rect -->
                    <g transform="translate(-5,0)" filter="url(#glow_trans)" stroke="rgba(255,255,255,0.4)" stroke-width="0.5" stroke-linejoin="round">
                        <path d="M25 60 L25 45 L35 50 Z" fill="url(#g_t_1)" opacity="1.0"/>
                        <path d="M25 45 L35 30 L45 40 Z" fill="url(#g_t_1)" opacity="0.95"/>
                        <path d="M25 45 L45 40 L35 50 Z" fill="url(#g_b_1)" opacity="0.9"/>
                        <path d="M35 30 L50 20 L55 35 Z" fill="url(#g_b_1)" opacity="1.0"/>
                        <path d="M35 30 L55 35 L45 40 Z" fill="url(#g_i_1)" opacity="0.95"/>
                        <path d="M50 20 L70 25 L65 40 Z" fill="url(#g_i_1)" opacity="1.0"/>
                        <path d="M50 20 L65 40 L55 35 Z" fill="url(#g_b_1)" opacity="0.9"/>
                        <path d="M70 25 L85 40 L70 55 Z" fill="url(#g_p_1)" opacity="1.0"/>
                        <path d="M70 25 L70 55 L65 40 Z" fill="url(#g_p_1)" opacity="0.85"/>
                        <path d="M85 40 L85 60 L75 75 Z" fill="url(#g_pi_1)" opacity="0.95"/>
                        <path d="M85 40 L75 75 L70 55 Z" fill="url(#g_pi_1)" opacity="0.85"/>
                        <path d="M45 40 L55 35 L50 55 Z" fill="url(#g_i_1)" opacity="0.8"/>
                        <path d="M55 35 L65 40 L50 55 Z" fill="url(#g_p_1)" opacity="0.85"/>
                        <path d="M65 40 L70 55 L60 60 Z" fill="url(#g_p_1)" opacity="0.8"/>
                        <path d="M65 40 L60 60 L50 55 Z" fill="url(#g_i_1)" opacity="0.75"/>
                        <path d="M35 50 L45 40 L45 60 Z" fill="url(#g_b_1)" opacity="0.85"/>
                        <path d="M45 40 L50 55 L45 60 Z" fill="url(#g_i_1)" opacity="0.8"/>
                        <path d="M45 60 L50 55 L50 70 Z" fill="url(#g_p_1)" opacity="0.8"/>
                        <path d="M50 55 L60 60 L50 70 Z" fill="url(#g_p_1)" opacity="0.8"/>
                        <path d="M60 60 L70 55 L75 75 Z" fill="url(#g_pi_1)" opacity="0.9"/>
                        <path d="M60 60 L75 75 L60 80 Z" fill="url(#g_pi_1)" opacity="0.95"/>
                        <path d="M25 60 L35 50 L45 60 Z" fill="url(#g_t_1)" opacity="0.8"/>
                    </g>
                </svg>